<?xml version="1.0" standalone="no"?><!DOCTYPE svg PUBLIC "-//W3C//DTD SVG 1.1//EN" "http://www.w3.org/Graphics/SVG/1.1/DTD/svg11.dtd"><svg t="1505370865432" class="icon" style="" viewBox="0 0 1024 1024" version="1.1" xmlns="http://www.w3.org/2000/svg" p-id="1705" xmlns:xlink="http://www.w3.org/1999/xlink" width="128" height="128"><defs><style type="text/css"></style></defs><path d="M742.015697 928.534741c-12.525268 0-24.044626-2.831488-34.244942-8.414646l-190.133361-95.067193-190.129269 95.065146c-10.202363 5.585205-21.721721 8.416693-34.248011 8.416693-12.525268 0-24.044626-2.831488-34.245966-8.41567L63.196321 822.211181c-25.686009-12.335956-42.273802-38.944987-42.273802-67.847248V572.055794c0-29.971615 18.040888-57.408501 45.962821-69.895906l0.287549-0.125867 178.127933-76.3192V263.536138c0-29.972639 18.041912-57.408501 45.963845-69.894883l0.284479-0.124843 196.270129-84.11577c9.166777-3.989871 19.198248-6.012947 29.818119-6.012947s20.652366 2.023076 29.818119 6.012947l196.555631 84.240613c27.921933 12.486382 45.962821 39.922245 45.962822 69.894883v162.179707l178.270172 76.380598c28.008914 12.260232 46.108131 39.721677 46.108131 69.959351v182.307116c0 28.90226-16.587793 55.511291-42.273802 67.847248L776.262686 920.119071c-10.201339 5.584182-21.720697 8.41567-34.246989 8.41567z m10.540054-265.631869l-2.223644 224.906329a27.193339 27.193339 0 0 0 6.974855-2.714831l0.783852-0.414439 196.666149-98.328469c12.010545-5.726421 19.771299-18.282389 19.771299-31.987529V572.055794a37.442774 37.442774 0 0 0-0.12996-3.118014l-221.842551 93.965092zM64.152089 556.964074c-2.203178 4.675486-3.406586 9.807367-3.406586 15.092743V754.363933c0 13.70514 7.760754 26.261107 19.771299 31.987529l0.335644 0.163729 192.494129 96.247064V642.641409l-209.194486-85.677335z m249.019517 79.804581v245.992577l184.554296-92.276637V557.712111l-184.554296 79.056544z m224.37728 153.71594l173.062567 86.531796 2.13564-215.947284-175.198207-97.357352v226.77284z m24.820292-258.539334l171.82846 95.483678 213.947743-90.620927-196.59247-84.229356-189.183733 79.366605z m-459.166701-2.022053l183.148273 75.010391 128.619356-55.094806-170.781618-80.320327-140.986011 60.404742z m401.438928 18.078751h10.426467V365.964996L286.395776 254.193353a35.043121 35.043121 0 0 0-1.27197 9.342785v181.225482l219.517599 103.240339zM554.891879 350.181521V491.896126l195.259103-81.914637v-146.445351c0-0.289596-0.004093-0.577145-0.010233-0.86674L554.891879 350.181521zM318.210365 225.416959l199.793372 97.657181 208.683857-93.533257-195.099467-83.614349c-4.128017-1.801019-8.820899-2.714831-13.94971-2.714832-5.128811 0-9.821693 0.913812-13.94971 2.714832l-0.12075 0.052188-185.357592 79.438237z" fill="#3E3A39" p-id="1706"></path></svg>